# xmcd CD database file generated by OrangeCD 5.2
#
# Track frame offsets:
#	182
#	21905
#	45177
#	68060
#	88485
#	110297
#	129405
#	146120
#	166485
#	184142
#	204780
#	222360
#
# Disc length: 3176 seconds
#
# Revision: 19
# Processed by: cddbd v1.5.1PL2 Copyright (c) Steve Scherf et al.
# Submitted via: OrangeCD 5.2
#
DISCID=a90c660c
DTITLE=Jonny Lang - Wander This World
DYEAR=1998
DGENRE=Blues
TTITLE0=Still Rainin'
TTITLE1=Second Guessing
TTITLE2=I Am
TTITLE3=Breakin' Me
TTITLE4=Wander This World
TTITLE5=Walking Away
TTITLE6=The Levee
TTITLE7=Angel Of Mercy
TTITLE8=Right Back
TTITLE9=Leaving To Stay
TTITLE10=Before You Hit The Ground
TTITLE11=Cherry Red Wine
EXTD=
EXTT0=
EXTT1=
EXTT2=
EXTT3=
EXTT4=
EXTT5=
EXTT6=
EXTT7=
EXTT8=
EXTT9=
EXTT10=
EXTT11=
PLAYORDER=
